<?xml version="1.0" standalone="no"?>
<!DOCTYPE svg PUBLIC "-//W3C//DTD SVG 20010904//EN"
 "http://www.w3.org/TR/2001/REC-SVG-20010904/DTD/svg10.dtd">
<svg version="1.0" xmlns="http://www.w3.org/2000/svg"
 width="500.000000pt" height="500.000000pt" viewBox="0 0 500.000000 500.000000"
 preserveAspectRatio="xMidYMid meet">
<metadata>
Created by potrace 1.14, written by Peter Selinger 2001-2017
</metadata>
<g transform="translate(0.000000,500.000000) scale(0.100000,-0.100000)"
fill="#000000" stroke="none">
<path d="M0 2500 l0 -2500 2500 0 2500 0 0 2500 0 2500 -2500 0 -2500 0 0
-2500z m2984 1875 c181 -27 405 -98 557 -175 233 -119 475 -324 632 -535 119
-160 237 -390 283 -550 l19 -65 187 0 188 0 0 -140 0 -140 -157 0 -158 0 0
-248 c-1 -218 -3 -259 -23 -351 -26 -116 -73 -270 -108 -349 l-23 -52 245 0
244 0 0 -140 0 -140 -323 0 -324 0 -61 -79 c-272 -351 -663 -591 -1097 -673
-106 -20 -152 -22 -385 -22 -239 0 -274 2 -360 22 -377 89 -705 273 -962 541
l-98 101 -110 0 -110 0 0 115 0 115 -84 0 c-171 0 -334 37 -471 108 -106 55
-221 173 -273 282 -61 128 -77 214 -76 405 1 128 5 175 22 237 66 242 213 395
457 477 81 26 137 37 298 57 43 5 50 9 59 37 6 18 42 93 79 167 140 277 373
539 635 713 227 151 467 245 718 282 129 18 457 19 580 0z"/>
<path d="M2548 4328 c7 -7 12 -29 12 -50 0 -35 2 -38 28 -38 16 0 37 -7 48
-15 12 -9 44 -14 90 -15 39 0 111 -7 160 -16 102 -18 197 -22 236 -11 21 5 29
15 34 44 6 31 3 39 -16 55 -37 30 -87 38 -306 48 -282 13 -301 13 -286 -2z"/>
<path d="M2395 4316 c-36 -16 -72 -54 -77 -81 -2 -16 7 -23 50 -38 49 -16 54
-16 78 -1 19 13 23 21 17 38 -4 11 -8 38 -8 59 0 41 -10 45 -60 23z"/>
<path d="M2093 4255 c-75 -21 -282 -129 -413 -218 -156 -105 -325 -268 -357
-345 -23 -56 5 -152 52 -174 19 -9 35 -7 77 10 29 12 115 37 192 56 221 57
286 94 360 205 25 36 83 108 129 160 122 135 152 210 110 271 -37 54 -60 59
-150 35z"/>
<path d="M3238 4217 c-80 -68 -62 -151 69 -302 38 -44 88 -106 111 -137 82
-112 178 -165 470 -263 l173 -58 22 21 c17 17 22 37 25 91 7 121 -39 186 -245
353 -177 143 -326 232 -491 294 -78 30 -100 30 -134 1z"/>
<path d="M2720 4151 c0 -6 5 -13 10 -16 6 -3 10 -15 10 -27 0 -18 -4 -19 -35
-14 -31 6 -35 4 -35 -14 0 -11 11 -53 25 -92 14 -39 25 -78 25 -85 0 -8 12
-26 26 -41 14 -15 35 -45 46 -66 19 -38 19 -40 3 -52 -17 -12 -15 -17 18 -66
20 -29 41 -73 48 -98 7 -25 26 -66 42 -92 26 -41 35 -48 62 -48 41 0 227 -34
288 -53 l48 -15 45 56 c57 73 86 133 92 191 4 44 1 52 -45 111 -27 36 -76 103
-110 150 -82 115 -165 195 -239 231 -51 26 -79 31 -180 39 -149 12 -144 12
-144 1z"/>
<path d="M2362 4115 c-82 -36 -310 -308 -371 -445 l-20 -45 46 -87 47 -88 156
0 157 0 -5 29 c-6 42 38 86 76 76 39 -9 56 -30 56 -70 l0 -35 178 0 179 0 -16
30 c-8 16 -15 34 -15 40 0 24 -128 197 -188 254 -34 31 -44 29 -65 -13 -13
-26 -13 -34 5 -73 10 -23 29 -51 41 -60 12 -9 23 -29 24 -45 9 -89 9 -88 -13
-91 -17 -2 -24 6 -37 40 -10 24 -17 51 -17 59 0 8 -16 31 -36 50 -73 70 -87
129 -58 241 15 58 12 168 -5 168 -11 0 -32 -112 -27 -147 3 -20 -1 -36 -9 -43
-25 -21 -36 -1 -31 53 3 29 8 89 11 135 7 92 4 96 -63 67z"/>
<path d="M1644 3545 c-232 -58 -305 -108 -384 -264 -22 -44 -40 -85 -40 -91 0
-6 48 -10 130 -10 l130 0 0 135 0 135 275 0 c151 0 275 4 275 8 0 13 -83 89
-117 106 -47 24 -121 19 -269 -19z"/>
<path d="M3525 3555 c-22 -8 -41 -15 -41 -15 -5 0 -145 -182 -143 -183 2 -2
29 -14 59 -27 130 -56 270 -164 351 -268 l26 -34 71 11 c39 6 141 11 226 11
86 0 156 1 156 3 0 13 -52 131 -91 208 -52 102 -80 139 -106 139 -8 0 -81 31
-162 69 -212 101 -267 114 -346 86z"/>
<path d="M1203 3528 c-58 -63 -127 -181 -173 -298 l-20 -50 75 0 75 0 20 38
c12 20 37 61 55 91 45 70 79 173 70 209 -13 52 -57 57 -102 10z"/>
<path d="M4162 3500 c-46 -43 -39 -107 30 -244 22 -44 51 -108 63 -141 l23
-60 72 -3 72 -3 -7 28 c-14 56 -86 231 -138 333 -58 113 -75 127 -115 90z"/>
<path d="M1950 3062 c0 -4 15 -16 33 -27 17 -10 62 -47 98 -82 37 -36 69 -61
72 -56 3 4 16 45 30 91 l25 82 -129 0 c-71 0 -129 -4 -129 -8z"/>
<path d="M2246 3048 c-9 -13 -19 -40 -22 -59 -3 -18 -15 -59 -26 -91 l-20 -56
30 -64 c63 -131 90 -317 72 -493 -6 -58 -13 -111 -16 -119 -3 -9 17 -27 58
-52 74 -45 147 -99 243 -183 72 -63 126 -88 167 -77 12 3 120 82 238 174 l215
169 6 124 c8 135 16 183 53 283 l24 66 -44 136 c-24 75 -44 144 -44 154 0 22
-67 52 -182 81 -74 19 -118 22 -410 26 l-326 5 -16 -24z"/>
<path d="M3235 2920 c9 -16 26 -68 38 -115 l23 -85 37 50 37 50 -65 65 c-70
71 -95 83 -70 35z"/>
<path d="M920 2853 c-37 -131 -36 -223 2 -247 35 -22 119 94 148 204 6 25 13
53 16 63 5 15 -3 17 -75 17 l-80 0 -11 -37z"/>
<path d="M1115 2878 c-2 -7 -9 -50 -14 -96 l-10 -82 33 -53 c18 -28 52 -88 76
-132 58 -107 95 -161 144 -213 38 -41 102 -82 126 -82 7 0 10 110 10 335 l0
335 -180 0 c-136 0 -182 -3 -185 -12z"/>
<path d="M795 2861 c-129 -37 -200 -92 -250 -194 -19 -40 -40 -96 -45 -126
-13 -72 -13 -237 1 -303 27 -128 100 -228 208 -282 58 -30 158 -56 215 -56 32
0 37 3 33 18 -67 202 -96 356 -104 552 -5 129 6 317 24 388 6 27 -1 27 -82 3z"/>
<path d="M3975 2763 c-78 -9 -75 -6 -57 -75 11 -47 16 -115 16 -265 l1 -203
32 0 c28 0 36 6 54 43 12 23 51 89 87 147 73 118 135 242 156 313 l14 47 -136
-1 c-76 -1 -150 -4 -167 -6z"/>
<path d="M4356 2748 c3 -13 15 -46 26 -74 22 -61 96 -150 111 -135 6 6 7 51 2
120 l-7 111 -70 0 c-67 0 -69 -1 -62 -22z"/>
<path d="M4279 2613 c-29 -26 -58 -72 -102 -162 -34 -69 -76 -151 -94 -181
-45 -79 -70 -174 -88 -339 -12 -116 -13 -146 -3 -153 7 -4 85 -8 174 -8 l161
0 33 83 c18 45 53 143 77 217 44 129 45 138 40 225 -3 64 -12 111 -31 160 -26
68 -103 195 -118 195 -5 0 -26 -17 -49 -37z"/>
<path d="M973 2580 c-45 -27 -60 -55 -72 -131 -12 -72 -3 -172 23 -269 30
-111 93 -284 104 -288 9 -3 12 32 12 132 l0 136 165 2 165 3 -25 50 c-33 67
-164 275 -195 311 -65 75 -117 91 -177 54z"/>
<path d="M3915 2125 c-15 -67 -49 -164 -81 -229 -18 -38 -31 -72 -29 -76 3 -4
26 -13 52 -19 27 -7 55 -14 65 -17 13 -4 18 8 29 68 19 115 16 216 -8 263
l-21 40 -7 -30z"/>
<path d="M1448 2123 c-9 -11 -20 -57 -27 -109 -15 -120 -14 -124 8 -124 49 0
51 5 51 131 0 65 -4 119 -8 119 -5 0 -16 -8 -24 -17z"/>
<path d="M3119 2092 c-35 -27 -107 -81 -159 -120 -94 -69 -230 -197 -230 -216
0 -12 164 0 250 18 81 18 160 47 227 86 l52 30 -25 72 c-13 40 -27 96 -31 125
-3 29 -9 53 -12 53 -4 0 -36 -22 -72 -48z"/>
<path d="M2239 2082 c-35 -109 -114 -224 -200 -292 l-51 -40 341 0 c269 0 341
3 341 13 0 26 -53 88 -108 127 -31 22 -114 82 -184 134 l-127 95 -12 -37z"/>
<path d="M1432 1573 c11 -41 35 -93 43 -93 3 0 5 29 5 65 l0 65 -29 0 c-29 0
-29 0 -19 -37z"/>
<path d="M3535 1564 c-44 -35 -225 -115 -315 -139 -117 -30 -303 -55 -416 -55
-81 0 -84 -1 -84 -23 0 -35 47 -122 73 -134 12 -6 72 -28 132 -48 349 -118
402 -119 592 -7 198 117 305 208 351 299 l21 40 -75 11 c-41 7 -108 23 -147
37 -100 36 -109 37 -132 19z"/>
<path d="M1390 1445 l0 -65 -37 0 -38 0 100 -101 c124 -125 276 -241 403 -306
87 -46 206 -93 232 -93 18 0 11 45 -16 99 -31 62 -85 105 -229 182 -71 39
-123 76 -181 132 -66 63 -87 77 -113 77 -28 0 -31 3 -31 33 0 25 -9 42 -38 70
-21 20 -41 37 -45 37 -4 0 -7 -29 -7 -65z"/>
<path d="M3928 1420 c-20 -11 -76 -57 -125 -103 -112 -106 -168 -145 -313
-217 -170 -85 -210 -125 -210 -211 0 -41 0 -41 32 -35 57 11 350 163 440 228
105 76 226 184 297 266 l52 61 -30 15 c-40 21 -98 19 -143 -4z"/>
<path d="M1637 1328 c76 -68 181 -142 268 -189 79 -44 81 -44 175 -43 70 1
112 7 160 23 36 12 121 31 189 42 194 31 250 65 259 159 l5 50 -552 0 -552 0
48 -42z"/>
<path d="M2545 1150 c-38 -11 -126 -31 -195 -45 -207 -40 -260 -67 -260 -132
0 -99 109 -172 305 -204 39 -6 186 -13 329 -14 299 -4 345 4 435 75 56 45 81
84 81 129 0 51 -35 79 -150 117 -278 92 -416 111 -545 74z"/>
</g>
</svg>
